<svg viewBox="0 0 250 250" xmlns="http://www.w3.org/2000/svg"><mask id="b" x="0" y="0" width="250" height="250"><path fill="url(#a)" d="M0 0h250v250H0z"/></mask><path fill="#fff" d="M0 0h250v250H0z"/><g style="transform-origin:center center" stroke="#838383" stroke-width=".025" fill="none" mask="url(#b)"><path d="M0 0h12.5v12.5H0zM12.5 0H25v12.5H12.5zM25 0h12.5v12.5H25zM37.5 0H50v12.5H37.5zM50 0h12.5v12.5H50zM62.5 0H75v12.5H62.5zM75 0h12.5v12.5H75zM87.5 0H100v12.5H87.5zM100 0h12.5v12.5H100zM112.5 0H125v12.5h-12.5zM125 0h12.5v12.5H125zM137.5 0H150v12.5h-12.5zM150 0h12.5v12.5H150zM162.5 0H175v12.5h-12.5zM175 0h12.5v12.5H175zM187.5 0H200v12.5h-12.5zM200 0h12.5v12.5H200zM212.5 0H225v12.5h-12.5zM225 0h12.5v12.5H225zM237.5 0H250v12.5h-12.5zM0 12.5h12.5V25H0zM12.5 12.5H25V25H12.5zM25 12.5h12.5V25H25zM37.5 12.5H50V25H37.5zM50 12.5h12.5V25H50zM62.5 12.5H75V25H62.5zM75 12.5h12.5V25H75zM87.5 12.5H100V25H87.5zM100 12.5h12.5V25H100zM112.5 12.5H125V25h-12.5zM125 12.5h12.5V25H125zM137.5 12.5H150V25h-12.5zM150 12.5h12.5V25H150zM162.5 12.5H175V25h-12.5zM175 12.5h12.5V25H175zM187.5 12.5H200V25h-12.5zM200 12.5h12.5V25H200zM212.5 12.5H225V25h-12.5zM225 12.5h12.5V25H225zM237.5 12.5H250V25h-12.5zM0 25h12.5v12.5H0zM12.5 25H25v12.5H12.5zM25 25h12.5v12.5H25zM37.5 25H50v12.5H37.5zM50 25h12.5v12.5H50zM62.5 25H75v12.5H62.5zM75 25h12.5v12.5H75zM87.5 25H100v12.5H87.5zM100 25h12.5v12.5H100zM112.5 25H125v12.5h-12.5zM125 25h12.5v12.5H125zM137.5 25H150v12.5h-12.5zM150 25h12.5v12.5H150zM162.5 25H175v12.5h-12.5zM175 25h12.5v12.5H175zM187.5 25H200v12.5h-12.5zM200 25h12.5v12.5H200zM212.5 25H225v12.5h-12.5zM225 25h12.5v12.5H225zM237.5 25H250v12.5h-12.5zM0 37.5h12.5V50H0zM12.5 37.5H25V50H12.5zM25 37.5h12.5V50H25zM37.5 37.5H50V50H37.5zM50 37.5h12.5V50H50zM62.5 37.5H75V50H62.5zM75 37.5h12.5V50H75zM87.5 37.5H100V50H87.5zM100 37.5h12.5V50H100zM112.5 37.5H125V50h-12.5zM125 37.5h12.5V50H125zM137.5 37.5H150V50h-12.5zM150 37.5h12.5V50H150zM162.5 37.5H175V50h-12.5zM175 37.5h12.5V50H175zM187.5 37.5H200V50h-12.5zM200 37.5h12.5V50H200zM212.5 37.5H225V50h-12.5zM225 37.5h12.5V50H225zM237.5 37.5H250V50h-12.5zM0 50h12.5v12.5H0zM12.5 50H25v12.5H12.5zM25 50h12.5v12.5H25zM37.5 50H50v12.5H37.5zM50 50h12.5v12.5H50zM62.5 50H75v12.5H62.5zM75 50h12.5v12.5H75zM87.5 50H100v12.5H87.5zM100 50h12.5v12.5H100zM112.5 50H125v12.5h-12.5zM125 50h12.5v12.5H125zM137.5 50H150v12.5h-12.5zM150 50h12.5v12.5H150zM162.5 50H175v12.5h-12.5zM175 50h12.5v12.5H175zM187.5 50H200v12.5h-12.5zM200 50h12.5v12.5H200zM212.5 50H225v12.5h-12.5zM225 50h12.5v12.5H225zM237.5 50H250v12.5h-12.5zM0 62.5h12.5V75H0zM12.5 62.5H25V75H12.5zM25 62.5h12.5V75H25zM37.5 62.5H50V75H37.5zM50 62.5h12.5V75H50zM62.5 62.5H75V75H62.5zM75 62.5h12.5V75H75zM87.5 62.5H100V75H87.5zM100 62.5h12.5V75H100zM112.5 62.5H125V75h-12.5zM125 62.5h12.5V75H125zM137.5 62.5H150V75h-12.5zM150 62.5h12.5V75H150zM162.5 62.5H175V75h-12.5zM175 62.5h12.5V75H175zM187.5 62.5H200V75h-12.5zM200 62.5h12.5V75H200zM212.5 62.5H225V75h-12.5zM225 62.5h12.5V75H225zM237.5 62.5H250V75h-12.5zM0 75h12.5v12.5H0zM12.5 75H25v12.5H12.5zM25 75h12.5v12.5H25zM37.5 75H50v12.5H37.5zM50 75h12.5v12.5H50zM62.5 75H75v12.5H62.5zM75 75h12.5v12.5H75zM87.5 75H100v12.5H87.5zM100 75h12.5v12.5H100zM112.5 75H125v12.5h-12.5zM125 75h12.5v12.5H125zM137.5 75H150v12.5h-12.5zM150 75h12.5v12.5H150zM162.5 75H175v12.5h-12.5zM175 75h12.5v12.5H175zM187.5 75H200v12.5h-12.5zM200 75h12.5v12.5H200zM212.5 75H225v12.5h-12.5zM225 75h12.5v12.5H225zM237.5 75H250v12.5h-12.5zM0 87.5h12.5V100H0zM12.5 87.5H25V100H12.5zM25 87.5h12.5V100H25zM37.5 87.5H50V100H37.5zM50 87.5h12.5V100H50zM62.5 87.5H75V100H62.5zM75 87.5h12.5V100H75zM87.5 87.5H100V100H87.5zM100 87.5h12.5V100H100zM112.5 87.5H125V100h-12.5zM125 87.5h12.5V100H125zM137.5 87.5H150V100h-12.5zM150 87.5h12.5V100H150zM162.5 87.5H175V100h-12.5zM175 87.5h12.5V100H175zM187.5 87.5H200V100h-12.5zM200 87.5h12.5V100H200zM212.5 87.5H225V100h-12.5zM225 87.5h12.5V100H225zM237.5 87.5H250V100h-12.5zM0 100h12.5v12.5H0zM12.5 100H25v12.5H12.5zM25 100h12.5v12.5H25zM37.5 100H50v12.5H37.5zM50 100h12.5v12.5H50zM62.5 100H75v12.5H62.5zM75 100h12.5v12.5H75zM87.5 100H100v12.5H87.5zM100 100h12.5v12.5H100zM112.5 100H125v12.5h-12.5zM125 100h12.5v12.5H125zM137.5 100H150v12.5h-12.5zM150 100h12.5v12.5H150zM162.5 100H175v12.5h-12.5zM175 100h12.5v12.5H175zM187.5 100H200v12.5h-12.5zM200 100h12.5v12.5H200zM212.5 100H225v12.5h-12.5zM225 100h12.5v12.5H225zM237.5 100H250v12.5h-12.5zM0 112.5h12.5V125H0zM12.5 112.5H25V125H12.5zM25 112.5h12.5V125H25zM37.5 112.5H50V125H37.5zM50 112.5h12.5V125H50zM62.5 112.5H75V125H62.5zM75 112.5h12.5V125H75zM87.5 112.5H100V125H87.5zM100 112.5h12.5V125H100zM112.5 112.5H125V125h-12.5zM125 112.5h12.5V125H125zM137.5 112.5H150V125h-12.5zM150 112.5h12.5V125H150zM162.5 112.5H175V125h-12.5zM175 112.5h12.5V125H175zM187.5 112.5H200V125h-12.5zM200 112.5h12.5V125H200zM212.5 112.5H225V125h-12.5zM225 112.5h12.5V125H225zM237.5 112.5H250V125h-12.5zM0 125h12.5v12.5H0zM12.5 125H25v12.5H12.5zM25 125h12.5v12.5H25zM37.5 125H50v12.5H37.5zM50 125h12.5v12.5H50zM62.5 125H75v12.5H62.5zM75 125h12.5v12.5H75zM87.5 125H100v12.5H87.5zM100 125h12.5v12.5H100zM112.5 125H125v12.5h-12.5zM125 125h12.5v12.5H125zM137.5 125H150v12.5h-12.5zM150 125h12.5v12.5H150zM162.5 125H175v12.5h-12.5zM175 125h12.5v12.5H175zM187.5 125H200v12.5h-12.5zM200 125h12.5v12.5H200zM212.5 125H225v12.5h-12.5zM225 125h12.5v12.5H225zM237.5 125H250v12.5h-12.5zM0 137.5h12.5V150H0zM12.5 137.5H25V150H12.5zM25 137.5h12.5V150H25zM37.5 137.5H50V150H37.5zM50 137.5h12.5V150H50zM62.5 137.5H75V150H62.5zM75 137.5h12.5V150H75zM87.5 137.5H100V150H87.5zM100 137.5h12.5V150H100zM112.5 137.5H125V150h-12.5zM125 137.5h12.5V150H125zM137.5 137.5H150V150h-12.5zM150 137.5h12.5V150H150zM162.5 137.5H175V150h-12.5zM175 137.5h12.5V150H175zM187.5 137.5H200V150h-12.5zM200 137.5h12.5V150H200zM212.5 137.5H225V150h-12.5zM225 137.5h12.5V150H225zM237.5 137.5H250V150h-12.5zM0 150h12.5v12.5H0zM12.5 150H25v12.5H12.5zM25 150h12.5v12.5H25zM37.5 150H50v12.5H37.5zM50 150h12.5v12.5H50zM62.5 150H75v12.5H62.5zM75 150h12.5v12.5H75zM87.5 150H100v12.5H87.5zM100 150h12.5v12.5H100zM112.5 150H125v12.5h-12.5zM125 150h12.5v12.5H125zM137.5 150H150v12.5h-12.5zM150 150h12.5v12.5H150zM162.5 150H175v12.5h-12.5zM175 150h12.5v12.5H175zM187.5 150H200v12.5h-12.5zM200 150h12.5v12.5H200zM212.5 150H225v12.5h-12.5zM225 150h12.5v12.5H225zM237.5 150H250v12.5h-12.5zM0 162.5h12.5V175H0zM12.5 162.5H25V175H12.5zM25 162.5h12.5V175H25zM37.5 162.5H50V175H37.5zM50 162.5h12.5V175H50zM62.5 162.5H75V175H62.5zM75 162.5h12.5V175H75zM87.5 162.5H100V175H87.5zM100 162.5h12.5V175H100zM112.5 162.5H125V175h-12.5zM125 162.5h12.5V175H125zM137.5 162.5H150V175h-12.5zM150 162.5h12.5V175H150zM162.5 162.5H175V175h-12.5zM175 162.5h12.5V175H175zM187.5 162.5H200V175h-12.5zM200 162.5h12.5V175H200zM212.5 162.5H225V175h-12.5zM225 162.5h12.5V175H225zM237.5 162.5H250V175h-12.5zM0 175h12.5v12.5H0zM12.5 175H25v12.5H12.5zM25 175h12.5v12.5H25zM37.5 175H50v12.5H37.5zM50 175h12.5v12.5H50zM62.5 175H75v12.5H62.5zM75 175h12.5v12.5H75zM87.5 175H100v12.5H87.5zM100 175h12.5v12.5H100zM112.5 175H125v12.5h-12.5zM125 175h12.5v12.5H125zM137.5 175H150v12.5h-12.5zM150 175h12.5v12.5H150zM162.5 175H175v12.5h-12.5zM175 175h12.5v12.5H175zM187.5 175H200v12.5h-12.5zM200 175h12.5v12.5H200zM212.5 175H225v12.5h-12.5zM225 175h12.5v12.5H225zM237.5 175H250v12.5h-12.5zM0 187.5h12.5V200H0zM12.5 187.5H25V200H12.5zM25 187.5h12.5V200H25zM37.5 187.5H50V200H37.5zM50 187.5h12.5V200H50zM62.5 187.5H75V200H62.5zM75 187.5h12.5V200H75zM87.5 187.5H100V200H87.5zM100 187.5h12.5V200H100zM112.5 187.5H125V200h-12.5zM125 187.5h12.5V200H125zM137.5 187.5H150V200h-12.5zM150 187.5h12.5V200H150zM162.5 187.5H175V200h-12.5zM175 187.5h12.5V200H175zM187.5 187.5H200V200h-12.5zM200 187.5h12.5V200H200zM212.5 187.5H225V200h-12.5zM225 187.5h12.5V200H225zM237.5 187.5H250V200h-12.5zM0 200h12.5v12.5H0zM12.5 200H25v12.5H12.5zM25 200h12.5v12.5H25zM37.5 200H50v12.5H37.5zM50 200h12.5v12.5H50zM62.5 200H75v12.5H62.5zM75 200h12.5v12.5H75zM87.5 200H100v12.5H87.5zM100 200h12.5v12.5H100zM112.5 200H125v12.5h-12.5zM125 200h12.5v12.5H125zM137.5 200H150v12.5h-12.5zM150 200h12.5v12.5H150zM162.5 200H175v12.5h-12.5zM175 200h12.5v12.5H175zM187.5 200H200v12.5h-12.5zM200 200h12.5v12.5H200zM212.5 200H225v12.5h-12.5zM225 200h12.5v12.5H225zM237.5 200H250v12.5h-12.5zM0 212.5h12.5V225H0zM12.5 212.5H25V225H12.5zM25 212.5h12.5V225H25zM37.5 212.5H50V225H37.5zM50 212.5h12.5V225H50zM62.5 212.5H75V225H62.5zM75 212.5h12.5V225H75zM87.5 212.5H100V225H87.5zM100 212.5h12.5V225H100zM112.5 212.5H125V225h-12.5zM125 212.5h12.5V225H125zM137.5 212.5H150V225h-12.5zM150 212.5h12.5V225H150zM162.5 212.5H175V225h-12.5zM175 212.5h12.5V225H175zM187.5 212.5H200V225h-12.5zM200 212.5h12.5V225H200zM212.5 212.5H225V225h-12.5zM225 212.5h12.5V225H225zM237.5 212.5H250V225h-12.5zM0 225h12.5v12.5H0zM12.5 225H25v12.5H12.5zM25 225h12.5v12.5H25zM37.5 225H50v12.5H37.5zM50 225h12.5v12.5H50zM62.5 225H75v12.5H62.5zM75 225h12.5v12.5H75zM87.5 225H100v12.5H87.5zM100 225h12.5v12.5H100zM112.5 225H125v12.5h-12.5zM125 225h12.5v12.5H125zM137.5 225H150v12.5h-12.5zM150 225h12.5v12.5H150zM162.5 225H175v12.5h-12.5zM175 225h12.5v12.5H175zM187.5 225H200v12.5h-12.5zM200 225h12.5v12.5H200zM212.5 225H225v12.5h-12.5zM225 225h12.5v12.5H225zM237.5 225H250v12.5h-12.5zM0 237.5h12.5V250H0zM12.5 237.5H25V250H12.5zM25 237.5h12.5V250H25zM37.5 237.5H50V250H37.5zM50 237.5h12.5V250H50zM62.5 237.5H75V250H62.5zM75 237.5h12.5V250H75zM87.5 237.5H100V250H87.5zM100 237.5h12.5V250H100zM112.5 237.5H125V250h-12.5zM125 237.5h12.5V250H125zM137.5 237.5H150V250h-12.5zM150 237.5h12.5V250H150zM162.5 237.5H175V250h-12.5zM175 237.5h12.5V250H175zM187.5 237.5H200V250h-12.5zM200 237.5h12.5V250H200zM212.5 237.5H225V250h-12.5zM225 237.5h12.5V250H225zM237.5 237.5H250V250h-12.5z"/></g><defs><radialGradient id="a"><stop offset="0" stop-color="#fff"/><stop offset="1" stop-color="#fff"/></radialGradient></defs></svg>