<?xml version="1.0" encoding="UTF-8" standalone="no"?>
<!-- Created with Inkscape (http://www.inkscape.org/) -->

<svg
   width="62.557373mm"
   height="62.557377mm"
   viewBox="0 0 62.557373 62.557377"
   version="1.1"
   id="svg1"
   xml:space="preserve"
   xmlns="http://www.w3.org/2000/svg"
   xmlns:svg="http://www.w3.org/2000/svg"><defs
     id="defs1" /><g
     id="layer1"
     transform="translate(-77.302949,-78.053666)"><g
       id="g59"
       style="stroke:none"><path
         style="fill:#0b0b28;fill-opacity:1;stroke:none;stroke-width:0.2;stroke-dasharray:none;stroke-opacity:1"
         d="m 89.561286,93.906472 -0.52057,1.942799 0.413252,0.653962 9.787212,2.66773 0.99712,1.727047 2.62914,0.70448 -0.11036,0.41179 7.09549,1.90125 0.36257,0.36258 -0.1543,0.5759 0.50001,0.86606 -0.98829,3.68832 0.4819,0.83466 1.01727,0.27256 1.80634,1.80635 c 0,0 -0.58513,1.42448 -0.5851,2.18365 0,0.75917 0.27179,1.6584 0.59382,2.21616 0.32201,0.55777 1.11011,1.11013 1.11011,1.11013 0,0 1.09235,0.78931 2.06477,1.19211 0.97244,0.4028 2.82647,1.083 3.72635,0.96463 0.89995,-0.11854 1.03775,-0.43985 1.38293,-0.70472 0.34523,-0.2649 0.49647,-0.4121 0.77464,-0.77462 0.27816,-0.36253 0.82312,-1.42569 0.82312,-1.42569 l 1.11586,-1.11582 0.88,-0.23582 1.50504,0.40327 0.45481,0.26251 0.44096,0.76377 0.23961,0.41501 0.28261,1.05457 0.20213,0.75456 5e-5,1.34121 -1e-5,1.47241 -1.5e-4,0.53361 -0.926,3.45583 -0.10468,0.39067 -0.13862,0.51738 -0.9725,1.68444 1.24316,1.24318 7.47974,2.00421 0.90562,-0.52286 2e-5,-0.85145 v -0.60905 l 0.15852,-1.01666 -2e-5,-1.82216 4e-5,-1.83578 -1e-5,-1.10982 -1e-5,-0.79156 -0.13113,-0.4894 -0.16561,-0.61802 -0.12062,-0.6878 -0.48445,-1.808 -0.44366,-1.65577 -0.17806,-0.66452 -0.34362,-0.59515 -0.54493,-0.94385 -0.27258,-1.01731 -0.1984,-0.74038 1e-5,-1.45364 0.30227,-1.12798 -2e-5,-0.61027 -0.11318,-0.42241 -0.24337,-0.24337 -0.42843,-0.2473 -0.83653,-0.48298 -0.56084,-0.15027 -0.41777,-0.72363 -0.94699,-0.94698 -1.08127,-0.62427 -0.40098,-0.69457 0.15943,-0.59504 0.48962,-0.4896 1.11002,-0.64089 0.52042,-0.13943 0.95118,0.25486 0.19815,-0.34322 -0.80503,-0.46477 -0.57071,-0.32949 -1.23539,0.33101 -0.82024,-0.21979 -0.43516,-0.43514 h -0.78197 l -0.57175,-0.1532 -0.50095,-0.50095 -0.40692,-0.70481 -0.36578,-0.36577 -11.24769,-3.013807 -0.38371,0.383714 -0.87824,-0.23533 -1.05721,0.283259 -16.506397,-4.422875 -4.244627,-1.137347 z"
         id="path50" /><path
         id="path52"
         style="fill:#0b0b28;fill-opacity:1;stroke:none;stroke-width:0.2;stroke-dasharray:none;stroke-opacity:1"
         d="m 82.267978,92.166787 -0.0049,0.01828 c -0.687834,-0.172706 -1.613033,-0.201677 -1.74772,0.298323 -0.135517,0.503086 0.256524,0.817485 1.355766,1.164472 l -0.0064,0.02386 2.62476,0.703302 0.02068,-0.07718 0.167597,0.04491 -0.02068,0.07718 0.223698,0.05994 0.403231,-1.50488 -0.223697,-0.05994 -0.02068,0.07718 -0.167597,-0.04491 0.02068,-0.07718 z" /><rect
         style="fill:#ffffff;fill-opacity:1;stroke:none;stroke-width:0.280973;stroke-dasharray:none;stroke-opacity:1"
         id="rect54"
         width="2.9243405"
         height="0.85411102"
         x="107.27019"
         y="68.126221"
         transform="rotate(15)" /><rect
         style="fill:none;fill-opacity:0.271053;stroke:none;stroke-width:0.0662193;stroke-opacity:1"
         id="rect67"
         width="62.557373"
         height="62.557373"
         x="77.302956"
         y="78.053665" /></g></g></svg>
