<?xml version="1.0" encoding="UTF-8" standalone="no"?>
<!-- Created with Inkscape (http://www.inkscape.org/) -->

<svg
   width="62.557373mm"
   height="62.557377mm"
   viewBox="0 0 62.557373 62.557377"
   version="1.1"
   id="svg1"
   xml:space="preserve"
   xmlns="http://www.w3.org/2000/svg"
   xmlns:svg="http://www.w3.org/2000/svg"><defs
     id="defs1" /><g
     id="layer1"
     transform="translate(-143.99131,-7.448835)"><g
       id="g60"
       transform="matrix(0.69548079,0,0,0.69548079,52.773942,11.793269)"><circle
         style="fill:#0b0b28;fill-opacity:1;stroke:none;stroke-width:0.2;stroke-dasharray:none;stroke-opacity:1"
         id="path36"
         cx="175.97755"
         cy="-51.434776"
         r="25.143616"
         transform="rotate(30)" /><circle
         style="fill:#fbfbff;fill-opacity:1;stroke:none;stroke-width:0.211667;stroke-dasharray:none;stroke-opacity:1"
         id="circle38"
         cx="175.97755"
         cy="-66.979645"
         r="6.753099"
         transform="rotate(30)" /><circle
         style="fill:#fbfbff;fill-opacity:1;stroke:none;stroke-width:0.211667;stroke-dasharray:none;stroke-opacity:1"
         id="circle41"
         cx="175.97755"
         cy="-35.635071"
         r="6.753099"
         transform="rotate(30)" /><circle
         style="fill:#fbfbff;fill-opacity:1;stroke:none;stroke-width:0.211667;stroke-dasharray:none;stroke-opacity:1"
         id="circle42"
         cx="132.51544"
         cy="110.97762"
         r="6.753099"
         transform="rotate(-29.957854)" /><circle
         style="fill:#fbfbff;fill-opacity:1;stroke:none;stroke-width:0.211667;stroke-dasharray:none;stroke-opacity:1"
         id="circle43"
         cx="132.51544"
         cy="142.32219"
         r="6.753099"
         transform="rotate(-29.957854)" /><circle
         style="fill:#fbfbff;fill-opacity:1;stroke:none;stroke-width:0.211667;stroke-dasharray:none;stroke-opacity:1"
         id="circle44"
         cx="-47.935734"
         cy="161.25343"
         r="6.753099"
         transform="rotate(-91.413981)" /><circle
         style="fill:#fbfbff;fill-opacity:1;stroke:none;stroke-width:0.211667;stroke-dasharray:none;stroke-opacity:1"
         id="circle45"
         cx="-47.935734"
         cy="192.59801"
         r="6.753099"
         transform="rotate(-91.413981)" /><path
         id="path47"
         style="fill:#0b0b28;fill-opacity:1;stroke:none;stroke-width:0.2;stroke-dasharray:none;stroke-opacity:1"
         d="m 189.76377,11.048489 a 36.600902,36.600902 0 0 0 -32.48889,3.791963 l -2.86932,-3.79749 -2.70275,6.38889 -2.70193,6.389376 6.88394,-0.854803 6.88427,-0.853486 -2.82286,-3.737282 a 32.137683,32.137683 0 0 1 27.54622,-3.393118 z" /><rect
         style="fill:none;fill-opacity:0.271053;stroke:none;stroke-width:0.0662193;stroke-opacity:1"
         id="rect66"
         width="62.557373"
         height="62.557373"
         x="143.9913"
         y="7.4488344"
         transform="matrix(1.4378543,0,0,1.4378543,-75.881236,-16.957002)" /></g></g></svg>
