<?xml version="1.0" encoding="UTF-8" standalone="no"?>
<!-- Created with Inkscape (http://www.inkscape.org/) -->

<svg
   width="62.557369mm"
   height="62.557377mm"
   viewBox="0 0 62.557369 62.557377"
   version="1.1"
   id="svg1"
   xml:space="preserve"
   xmlns="http://www.w3.org/2000/svg"
   xmlns:svg="http://www.w3.org/2000/svg"><defs
     id="defs1" /><g
     id="layer1"
     transform="translate(-5.4097176,-7.4488345)"><rect
       style="fill:#ffffff;fill-opacity:0;stroke:none;stroke-width:2.50909;stroke-dasharray:none;stroke-opacity:1"
       id="rect63"
       width="71.120193"
       height="71.120193"
       x="7.4727731"
       y="2.3191354" /><g
       id="g62"
       style="stroke:none"
       transform="matrix(0.68149383,0,0,0.68149383,7.7660839,12.542972)"><path
         style="fill:#212145;fill-opacity:1;stroke:none;stroke-width:0.2;stroke-dasharray:none;stroke-opacity:1"
         d="m 18.150463,33.225408 c 0.529769,-13.385266 2.790121,-18.711789 8.743844,-18.703885 5.953723,0.0079 8.314914,10.58745 8.349868,18.644116 z"
         id="path3" /><path
         id="rect24"
         style="fill:#0b0b28;stroke:none;stroke-width:0.2;stroke-dasharray:none;stroke-opacity:1"
         d="m 17.897235,32.674619 v 30.609215 h 0.897976 v 1.958969 h -0.897976 v 2.611726 h 17.549201 v -2.611726 h -0.897973 v -1.958969 h 0.897973 V 32.674619 Z" /><path
         id="rect4"
         style="fill:#0b0b28;fill-opacity:1;stroke:none;stroke-width:0.2;stroke-dasharray:none;stroke-opacity:1"
         d="M 51.203141,8.9900361 V 19.509472 H 40.683705 v 5.259372 H 51.203141 V 35.28828 h 5.259371 V 24.768844 H 66.981948 V 19.509472 H 56.462512 V 8.9900361 Z" /><rect
         style="fill:none;fill-opacity:0.271053;stroke:none;stroke-width:0.0662193;stroke-opacity:1"
         id="rect65"
         width="62.557373"
         height="62.557373"
         x="5.4097171"
         y="7.4488344"
         transform="matrix(1.4673647,0,0,1.4673647,-11.395677,-18.405115)" /></g></g></svg>
